<?xml version="1.0" standalone="no"?>
<!DOCTYPE svg PUBLIC "-//W3C//DTD SVG 20010904//EN"
 "http://www.w3.org/TR/2001/REC-SVG-20010904/DTD/svg10.dtd">
<svg version="1.0" xmlns="http://www.w3.org/2000/svg"
 width="1592.000000pt" height="1592.000000pt" viewBox="0 0 1592.000000 1592.000000"
 preserveAspectRatio="xMidYMid meet">
<metadata>
Created by potrace 1.16, written by Peter Selinger 2001-2019
</metadata>
<g transform="translate(0.000000,1592.000000) scale(0.100000,-0.100000)"
fill="#000000" stroke="none">
<path d="M1193 13621 c-43 -11 -134 -56 -161 -80 -25 -21 -58 -90 -67 -141 -4
-24 72 -466 250 -1455 214 -1189 277 -1521 390 -2040 84 -386 143 -636 156
-663 44 -86 169 -172 251 -172 142 1 253 73 288 188 11 35 20 81 20 103 0 21
-66 334 -146 696 l-146 658 15 94 c17 106 64 213 141 318 103 140 261 223 428
223 102 0 165 -28 255 -113 93 -89 164 -195 252 -378 163 -340 237 -607 266
-963 16 -198 24 -246 57 -311 62 -124 204 -175 359 -129 64 19 155 92 175 141
22 52 27 193 15 388 -22 340 -66 570 -166 870 -132 397 -251 611 -450 811
-153 153 -325 254 -469 275 -84 12 -269 11 -362 -2 -215 -30 -464 -147 -636
-299 -33 -28 -49 -37 -52 -28 -3 7 -73 418 -156 912 -83 495 -156 909 -162
920 -22 41 -114 129 -160 152 -52 26 -136 37 -185 25z"/>
<path d="M4321 13474 c-87 -23 -167 -72 -231 -141 -75 -80 -106 -167 -96 -267
17 -168 159 -310 322 -324 154 -12 247 85 319 334 44 152 28 240 -59 330 -39
40 -64 56 -105 68 -65 19 -80 19 -150 0z"/>
<path d="M3796 12947 c-52 -126 -44 -290 22 -410 45 -84 144 -182 224 -222 39
-19 76 -35 83 -35 6 0 17 11 23 25 18 39 102 125 142 145 60 31 158 51 232 49
51 -2 72 2 79 12 12 19 56 136 68 181 l9 38 -48 -54 c-117 -127 -324 -153
-510 -65 -91 43 -208 162 -255 260 -19 40 -35 81 -35 91 0 29 -19 21 -34 -15z"/>
<path d="M856 12761 c-9 -34 -21 -93 -25 -130 -18 -173 99 -1030 309 -2251 50
-292 254 -1297 290 -1428 36 -130 92 -216 190 -293 112 -88 239 -122 379 -102
252 37 394 185 421 438 4 44 7 82 5 83 -2 2 -20 -14 -40 -36 -88 -98 -201
-142 -362 -142 -101 0 -110 2 -179 35 -137 66 -259 211 -282 335 -6 30 -69
323 -141 650 -124 566 -190 919 -492 2605 -27 154 -51 284 -53 289 -1 6 -10
-18 -20 -53z"/>
<path d="M9709 12709 c-165 -9 -203 -18 -207 -46 -3 -19 7 -23 95 -44 l97 -24
-183 -12 c-681 -45 -1216 -235 -1656 -590 -115 -93 -193 -173 -319 -328 -49
-61 -122 -144 -161 -185 -180 -188 -312 -386 -360 -540 -12 -37 -18 -97 -20
-180 -2 -83 -11 -159 -25 -225 -32 -142 -32 -299 -1 -378 12 -31 33 -70 47
-86 l24 -29 -20 -98 c-41 -197 -99 -521 -105 -590 -6 -60 -11 -74 -29 -82 -70
-32 -169 -153 -255 -313 l-41 -76 -88 18 c-111 23 -118 23 -142 -1 -25 -25
-26 -72 -2 -93 10 -10 57 -25 103 -34 46 -9 85 -17 86 -17 1 -1 -8 -37 -19
-81 -18 -68 -21 -110 -22 -285 0 -232 14 -321 80 -511 43 -124 69 -177 121
-246 l39 -52 22 -288 c13 -158 27 -385 32 -503 13 -286 18 -354 41 -488 32
-192 140 -494 253 -707 101 -192 261 -430 387 -576 48 -55 48 -56 36 -95 -7
-21 -27 -61 -44 -88 -27 -41 -72 -140 -96 -207 -4 -12 -26 -18 -92 -23 -238
-19 -426 -113 -617 -308 -121 -122 -445 -526 -937 -1165 l-194 -253 -64 120
c-34 66 -99 179 -144 252 -45 73 -104 178 -131 233 -97 193 -151 262 -260 333
-57 36 -60 41 -185 270 -112 204 -131 234 -159 244 l-31 11 58 121 c103 217
137 352 149 586 5 121 12 166 28 206 30 75 103 190 169 267 103 122 98 113 98
182 0 54 -4 69 -30 106 -78 110 -227 112 -388 5 -129 -86 -212 -187 -273 -330
-18 -42 -48 -88 -77 -120 l-48 -51 -21 25 c-107 130 -232 563 -283 974 -29
238 -51 318 -97 363 -45 42 -68 52 -135 59 -105 11 -181 -26 -226 -110 -20
-38 -22 -54 -21 -211 1 -150 7 -205 48 -469 26 -165 46 -309 44 -320 -4 -30
-81 77 -240 339 -224 368 -281 445 -360 486 -96 49 -237 -1 -289 -104 -18 -34
-21 -53 -17 -112 4 -62 12 -86 57 -174 28 -56 89 -162 134 -234 46 -73 121
-195 167 -272 45 -77 89 -150 97 -163 8 -14 -33 10 -104 61 -65 46 -205 145
-312 221 -107 76 -205 142 -218 147 -13 5 -50 9 -82 9 -46 0 -66 -6 -103 -29
-78 -50 -120 -147 -104 -237 12 -61 139 -181 496 -464 85 -67 146 -120 135
-117 -11 3 -136 42 -277 87 -144 44 -276 80 -298 80 -162 0 -257 -182 -163
-312 42 -59 101 -92 335 -188 229 -94 394 -169 437 -199 16 -12 81 -100 145
-196 130 -196 215 -289 342 -376 80 -54 82 -55 68 -79 -28 -51 -17 -97 77
-328 l90 -224 -11 -112 c-29 -280 19 -429 460 -1421 371 -834 503 -1112 581
-1216 121 -163 322 -300 516 -350 212 -54 480 -26 678 73 149 75 236 158 460
441 77 96 141 174 143 172 7 -7 -19 -309 -49 -564 -16 -140 -29 -258 -29 -263
0 -4 38 -8 84 -8 l84 0 11 83 c31 228 53 459 81 832 17 226 38 478 46 560 41
416 117 891 218 1365 83 389 98 476 99 580 2 71 -1 85 -14 88 -33 6 -187 -395
-254 -660 -90 -359 -197 -1057 -236 -1547 l-11 -143 -253 -317 c-139 -174
-268 -330 -286 -347 -187 -175 -502 -248 -744 -173 -224 69 -386 211 -501 442
-117 233 -602 1317 -749 1673 -150 364 -187 515 -166 682 12 97 33 140 102
216 28 31 48 56 45 56 -16 0 -93 -44 -117 -66 l-25 -24 -88 220 c-59 148 -85
226 -81 240 4 11 31 47 62 80 159 172 582 360 810 360 l59 0 109 -201 c61
-111 111 -206 113 -213 1 -6 -33 -21 -80 -34 -111 -31 -124 -46 -32 -37 93 9
175 -7 243 -48 68 -40 103 -86 185 -243 l64 -122 -36 24 c-52 36 -79 40 -110
17 -63 -47 -48 -132 33 -193 25 -19 43 -35 41 -37 -2 -2 -51 -5 -109 -6 -101
-2 -108 -3 -134 -29 -23 -24 -25 -30 -15 -52 13 -30 89 -56 166 -57 l51 0 -70
-25 c-110 -38 -144 -98 -91 -161 58 -69 165 -56 245 29 l30 32 -24 28 c-34 40
-48 92 -43 161 4 52 9 64 36 88 17 15 48 32 69 38 44 13 46 11 113 -107 41
-72 42 -73 25 -100 -43 -67 -107 -83 -144 -35 -41 51 -39 101 5 130 38 25 74
5 74 -41 0 -39 -18 -57 -32 -32 -5 9 -13 14 -19 11 -15 -10 -10 -34 10 -44 31
-17 71 21 71 68 0 86 -94 109 -152 37 -50 -62 19 -186 103 -186 26 0 70 28
100 64 16 19 16 19 29 -4 11 -21 10 -26 -17 -51 -21 -18 -28 -31 -22 -40 13
-20 11 -29 -6 -29 -8 0 -15 9 -15 20 0 17 -3 19 -19 10 -11 -5 -40 -10 -64
-10 l-45 0 -17 -92 -18 -91 27 -24 c30 -25 47 -28 77 -13 16 9 21 6 31 -19
l13 -31 44 31 c25 16 68 36 97 45 48 14 52 17 45 37 -7 18 -15 21 -47 19 -21
-2 -60 -14 -87 -27 -40 -19 -47 -20 -41 -6 4 9 9 31 13 50 5 27 12 36 35 42
20 6 35 3 50 -6 11 -8 31 -15 43 -15 18 0 30 -14 58 -70 39 -77 42 -88 20 -70
-8 7 -25 10 -37 7 -37 -10 -115 -63 -134 -92 -16 -25 -16 -27 7 -51 l23 -24
43 49 c24 27 60 60 80 72 35 22 36 22 49 4 21 -29 18 -37 -36 -93 -28 -29 -50
-56 -50 -61 0 -5 12 -11 27 -14 22 -4 36 3 67 30 l39 36 13 -24 c11 -21 10
-27 -12 -50 -21 -22 -23 -28 -10 -38 11 -9 20 -10 35 -2 18 10 22 7 37 -20 11
-21 12 -35 6 -41 -13 -13 14 -58 33 -58 17 0 43 -62 28 -67 -8 -3 -9 -13 -1
-34 7 -19 15 -28 24 -25 8 3 20 -6 29 -24 20 -39 19 -50 -5 -50 -14 0 -20 -7
-20 -24 0 -46 9 -55 43 -45 17 5 32 8 33 6 1 -1 8 -16 17 -33 l16 -30 -46 -12
c-34 -10 -44 -16 -39 -28 3 -9 6 -20 6 -25 0 -6 8 -6 19 1 29 15 81 13 81 -4
0 -8 3 -21 6 -29 4 -10 -7 -17 -40 -26 -51 -13 -52 -16 -31 -67 l15 -36 29 21
c16 12 34 21 40 21 18 0 12 -50 -10 -81 l-20 -29 22 -31 c15 -22 24 -27 29
-19 17 27 23 -211 11 -417 -7 -117 -9 -217 -6 -223 13 -21 33 10 55 83 72 237
101 472 82 675 -20 215 -40 275 -231 676 -95 198 -169 366 -167 373 9 23 587
767 880 1133 99 124 223 269 276 324 167 173 314 251 482 258 l76 3 13 -58
c15 -70 61 -171 125 -270 74 -115 285 -316 427 -407 l117 -75 -5 -65 c-31
-364 -156 -921 -331 -1477 -46 -147 -52 -155 -94 -133 -30 16 -39 41 -50 141
-12 104 -32 139 -81 139 -37 0 -72 -44 -98 -122 -32 -96 -54 -126 -97 -134
-36 -7 -39 -5 -104 66 -58 62 -71 71 -91 65 -69 -21 -86 -68 -70 -193 14 -106
8 -137 -32 -180 -20 -21 -29 -23 -110 -20 -88 3 -90 2 -112 -26 -29 -36 -39
-85 -25 -120 5 -15 32 -54 60 -87 44 -53 50 -65 50 -107 0 -61 -23 -98 -93
-146 -81 -56 -106 -120 -72 -186 17 -32 30 -37 118 -43 108 -7 132 -73 78
-212 -39 -100 -41 -156 -6 -190 13 -14 29 -25 35 -25 18 0 52 21 108 67 61 48
89 53 127 20 23 -19 28 -35 40 -125 14 -113 30 -142 74 -142 45 0 68 26 101
113 17 45 37 89 43 97 20 25 76 52 96 45 10 -3 39 -32 65 -65 53 -67 73 -77
114 -56 46 24 65 82 52 159 -15 95 -12 148 10 184 24 39 52 48 136 40 60 -6
66 -4 95 21 32 29 46 81 35 127 -4 14 -29 50 -56 80 -55 61 -65 88 -55 142 7
37 25 58 129 149 43 38 46 43 46 91 0 75 -25 103 -94 103 -76 0 -111 15 -131
56 -19 41 -16 61 26 169 34 90 36 128 9 173 l-20 33 60 201 c143 475 231 897
275 1327 l16 155 -68 62 c-37 35 -71 63 -74 64 -3 0 -10 -32 -15 -71 l-9 -70
-65 42 c-150 97 -359 297 -404 387 -73 147 -64 343 24 538 16 36 43 81 60 100
16 19 30 39 30 45 0 5 18 -5 40 -22 36 -29 40 -37 40 -79 0 -119 85 -360 173
-493 51 -76 283 -332 367 -404 45 -39 106 -71 150 -80 l35 -6 -40 -14 c-22 -8
-68 -21 -102 -30 -35 -8 -60 -20 -57 -25 15 -23 265 19 424 72 63 21 201 61
305 89 238 64 604 167 755 214 121 37 319 82 735 167 318 65 631 141 717 174
180 67 223 130 152 224 -27 35 -62 45 -49 15 25 -59 15 -89 -38 -118 l-35 -19
-35 31 c-66 58 -161 93 -402 148 -60 14 -154 39 -208 56 -92 28 -98 32 -95 55
3 22 20 33 127 80 l125 54 110 -31 c267 -76 510 -185 596 -269 66 -64 75 -102
60 -234 l-12 -101 46 -87 c51 -94 96 -249 96 -328 l0 -47 -77 -13 c-173 -28
-357 -109 -463 -206 -20 -17 -52 -27 -155 -43 -528 -84 -1114 -120 -1620 -101
-281 11 -451 23 -461 32 -3 3 7 31 21 63 l25 58 -32 -6 c-18 -3 -59 -13 -91
-22 -49 -14 -61 -22 -74 -51 -15 -30 -20 -34 -47 -30 -17 3 -80 8 -141 11 -60
3 -131 8 -157 12 -38 4 -48 3 -48 -9 0 -10 25 -22 73 -36 87 -26 209 -52 243
-52 13 0 24 -2 24 -5 0 -2 -13 -38 -30 -79 -165 -418 -248 -817 -295 -1431
-20 -260 -40 -435 -71 -620 -27 -161 -98 -519 -114 -575 -18 -63 -13 -106 15
-124 32 -21 88 -21 108 2 27 29 136 578 177 883 11 85 29 269 40 409 23 291
40 434 76 640 47 273 127 563 218 790 l34 85 39 -3 c21 -1 94 -7 163 -12 219
-18 729 -24 970 -11 257 14 546 41 799 77 96 13 176 22 178 20 2 -1 -19 -36
-46 -77 -55 -82 -102 -191 -128 -295 -18 -75 -24 -293 -10 -377 l9 -49 27 59
c16 32 49 85 73 119 40 53 46 69 53 130 27 252 191 483 420 590 179 83 412
102 596 48 140 -41 303 -155 382 -266 111 -156 147 -281 221 -758 79 -508 230
-1613 312 -2282 l38 -308 83 0 83 0 0 29 c0 109 -264 2072 -355 2645 -72 447
-120 603 -240 771 -82 116 -228 233 -363 291 -31 14 -100 47 -152 73 -52 26
-109 52 -126 58 -29 10 -32 15 -44 89 -16 105 -44 193 -89 284 -34 70 -36 79
-29 135 17 132 -12 249 -82 329 -77 87 -278 198 -490 271 -58 19 -111 38 -119
40 -8 3 17 25 60 53 251 165 473 400 637 676 49 81 228 452 300 619 11 27 13
27 101 27 168 0 353 51 576 160 237 115 412 245 531 394 152 191 234 376 269
606 36 232 0 416 -101 520 -19 20 -34 39 -34 43 0 4 21 56 46 115 25 59 68
165 95 237 44 114 59 140 125 221 104 129 150 240 189 466 15 84 36 362 35
453 -1 28 8 81 19 120 31 103 36 203 17 313 -33 190 -111 338 -251 479 l-92
92 -16 103 c-53 343 -217 650 -510 954 -395 411 -930 710 -1587 888 -456 123
-1152 187 -1701 155z m-1308 -1770 c257 -26 534 -89 894 -204 264 -84 611
-189 663 -200 62 -13 26 -15 -113 -5 -265 19 -498 67 -759 155 -74 25 -139 45
-145 45 -6 0 -11 -8 -11 -18 0 -40 308 -162 540 -216 246 -57 416 -76 685 -76
275 0 570 37 751 94 l76 24 66 -43 c97 -62 240 -131 341 -165 113 -38 299 -70
406 -70 l83 0 21 -62 c52 -160 53 -354 5 -588 -22 -106 -28 -162 -28 -260 0
-114 3 -133 32 -217 17 -51 51 -132 76 -181 101 -200 101 -338 0 -762 -19 -80
-39 -162 -45 -182 l-10 -38 -122 0 c-67 0 -174 7 -238 16 l-116 17 -12 78
c-28 180 -106 319 -243 428 -54 42 -57 47 -78 129 -35 132 -101 255 -179 333
-111 112 -317 198 -554 233 -282 42 -671 -2 -740 -84 -23 -27 -47 -104 -47
-152 0 -15 -4 -18 -17 -13 -153 65 -509 150 -780 186 l-93 13 0 72 c0 88 -12
105 -125 183 -200 138 -468 224 -705 224 -236 1 -360 -53 -500 -219 l-35 -41
-93 -6 c-51 -4 -110 -10 -131 -13 l-39 -6 14 88 c26 167 123 649 163 809 38
153 98 340 126 395 34 65 174 162 318 220 193 77 443 106 698 79z m-316 -1613
c103 -31 342 -143 329 -156 -5 -4 -25 -13 -45 -19 -32 -10 -42 -8 -100 18
-142 64 -415 144 -569 167 -51 7 -53 8 -25 15 17 4 95 6 175 5 122 -3 159 -8
235 -30z m-845 -126 c-11 -21 -20 -41 -20 -44 0 -2 30 16 67 40 59 39 74 44
123 44 150 -1 429 -54 630 -120 221 -72 308 -119 406 -216 146 -144 177 -218
154 -372 -11 -74 -14 -83 -23 -62 -49 128 -93 198 -172 277 -71 70 -98 89
-197 138 -144 70 -252 95 -420 95 -218 0 -361 -50 -478 -169 -36 -36 -73 -85
-84 -108 l-18 -42 37 -68 c52 -93 117 -184 159 -221 29 -25 46 -31 103 -36
270 -24 445 -57 650 -121 142 -45 183 -45 278 -1 85 39 85 40 20 -74 -117
-207 -296 -397 -499 -531 -168 -111 -315 -152 -536 -152 -123 0 -160 4 -241
26 -93 24 -206 73 -241 105 -35 30 -22 377 28 722 14 96 31 200 39 230 26 103
46 275 52 450 3 96 9 186 13 200 5 21 16 27 61 37 30 6 71 12 92 12 l37 1 -20
-40z m-353 -247 c-4 -94 -15 -197 -32 -283 -36 -188 -72 -432 -85 -580 -6 -69
-15 -156 -18 -195 l-7 -70 -37 111 c-58 174 -72 265 -72 454 -1 146 2 177 26
270 30 121 51 172 109 273 45 78 107 167 116 167 3 0 3 -66 0 -147z m1878 66
c275 -39 705 -136 705 -160 0 -4 -17 -13 -37 -19 -63 -20 -228 -108 -253 -135
l-23 -25 -47 44 c-58 54 -110 82 -192 101 -83 19 -149 19 -193 -2 -19 -9 -36
-15 -38 -12 -45 63 -96 126 -141 170 -31 31 -56 59 -56 62 0 8 122 -3 275 -24z
m1565 -93 c195 -14 445 -112 580 -227 l35 -30 -60 27 c-261 115 -574 185 -895
201 -123 6 -138 8 -95 15 61 10 300 25 335 22 14 -2 59 -5 100 -8z m-2525 -76
c49 -6 100 -13 114 -17 23 -6 21 -7 -21 -29 -97 -49 -153 -147 -152 -264 0
-69 5 -88 42 -164 3 -5 1 -6 -4 -3 -5 3 -66 11 -134 17 -164 15 -182 21 -224
79 -35 47 -96 166 -96 186 0 20 115 124 165 149 49 24 110 42 170 49 17 2 35
5 40 5 6 1 50 -3 100 -8z m2385 -96 c260 -33 500 -102 705 -203 265 -130 384
-266 421 -481 20 -120 14 -219 -25 -372 -47 -189 -133 -347 -277 -513 -120
-138 -230 -211 -375 -251 -89 -25 -303 -25 -419 -1 -442 93 -723 320 -930 750
-102 210 -146 410 -137 617 6 131 23 197 70 266 60 89 288 189 467 204 121 10
351 3 500 -16z m-2139 -1 c78 -47 47 -163 -45 -163 -67 0 -112 71 -82 129 28
52 74 65 127 34z m903 -72 c49 -23 63 -35 97 -79 l25 -33 -18 -54 c-67 -199
-32 -542 83 -810 215 -501 533 -775 1034 -891 63 -15 120 -19 265 -19 183 0
186 1 279 33 129 45 199 89 310 196 237 230 378 502 417 802 l6 50 122 -18
c66 -9 167 -18 224 -18 94 0 103 -2 98 -17 -19 -67 -45 -196 -40 -204 3 -5 14
-9 25 -9 10 0 31 -13 46 -30 27 -30 76 -50 126 -50 15 0 36 -5 46 -12 14 -9
29 -9 54 -1 28 8 36 7 45 -6 10 -14 17 -10 54 30 24 25 72 97 108 159 75 131
100 157 232 247 164 110 298 149 423 123 105 -22 180 -57 228 -109 63 -67 72
-101 72 -261 -1 -115 -5 -150 -28 -234 -72 -262 -232 -485 -452 -632 -176
-117 -411 -222 -579 -259 -63 -14 -105 -17 -198 -12 -72 4 -128 2 -141 -4 -15
-7 -38 -46 -71 -122 -96 -218 -245 -527 -292 -607 -161 -270 -400 -513 -651
-662 -262 -155 -951 -414 -1413 -532 -346 -87 -653 -97 -994 -31 -225 43 -402
115 -570 232 -108 76 -326 294 -417 418 -200 273 -317 490 -421 780 -82 231
-102 356 -118 720 -9 229 -19 378 -39 603 -4 45 -4 82 0 82 3 0 36 -14 73 -30
127 -58 220 -74 421 -75 155 0 193 3 269 23 202 51 376 155 566 338 65 63 145
150 176 192 80 107 82 108 35 16 -24 -44 -94 -152 -156 -240 -210 -294 -254
-387 -255 -535 0 -140 52 -274 140 -358 52 -50 185 -125 291 -165 116 -43 298
-59 287 -24 -2 6 -62 32 -133 57 -155 56 -202 78 -298 140 -81 53 -135 111
-169 180 -20 39 -23 62 -23 156 0 80 5 124 18 162 22 63 94 179 225 363 200
279 331 599 361 880 6 58 8 121 5 139 -10 49 9 60 87 49 34 -4 80 -17 103 -27z
m-549 -86 c45 -56 84 -139 94 -205 9 -59 11 -58 -102 -111 -66 -31 -70 -31
-130 -19 -34 6 -66 14 -70 17 -4 3 12 22 37 44 66 59 101 136 100 224 0 41 -7
86 -17 108 l-16 37 34 -26 c18 -14 50 -45 70 -69z m-4648 -2011 c22 -30 32
-80 59 -289 49 -389 136 -713 250 -935 24 -47 57 -101 73 -120 l29 -35 -87
-90 c-144 -151 -206 -284 -206 -445 0 -47 4 -102 8 -122 9 -43 38 -64 65 -49
15 8 17 27 17 143 0 113 4 141 22 186 48 119 153 245 293 352 117 90 164 146
219 265 37 78 65 121 106 165 70 72 164 135 228 151 44 11 51 10 75 -8 43 -32
39 -54 -24 -124 -106 -119 -200 -279 -229 -394 -8 -34 -15 -103 -15 -161 0
-194 -41 -351 -152 -585 l-70 -148 -42 -6 c-257 -41 -606 -199 -803 -363 l-62
-52 -89 60 c-122 82 -206 175 -337 375 -82 124 -123 177 -152 197 -63 42 -189
102 -350 168 -299 123 -364 154 -389 183 -13 16 -24 38 -24 50 0 28 38 67 67
67 12 0 195 -54 405 -121 281 -89 390 -119 412 -115 39 8 76 43 76 73 0 47
-31 82 -162 184 -295 229 -562 449 -630 521 -35 35 -35 68 -3 106 32 38 57 44
97 23 18 -9 191 -129 383 -265 193 -137 366 -257 385 -267 88 -48 159 7 129
100 -12 36 -208 370 -379 645 -172 277 -200 359 -139 410 37 31 77 33 111 6
36 -27 128 -165 284 -422 74 -122 160 -257 192 -301 67 -93 164 -187 195 -188
43 -2 62 3 82 22 33 32 25 174 -29 524 -66 424 -72 589 -24 637 17 17 29 19
71 15 33 -3 55 -11 64 -23z m6528 -2074 c-19 -118 -35 -226 -35 -240 0 -24 -5
-26 -203 -69 -111 -24 -272 -65 -357 -92 -85 -26 -232 -68 -325 -94 -94 -26
-232 -65 -309 -86 -167 -47 -347 -85 -439 -95 l-68 -7 -50 49 c-71 70 -159
187 -159 212 0 40 40 127 90 195 l50 67 67 1 c38 1 79 2 93 3 14 1 58 3 98 4
63 2 72 4 72 21 0 17 13 19 188 24 227 6 369 29 622 98 172 47 581 179 660
212 19 9 36 14 37 13 1 -1 -13 -98 -32 -216z m-2403 159 c93 -60 159 -151 213
-297 66 -179 125 -287 224 -417 42 -55 43 -59 16 -41 -85 53 -230 192 -308
293 -64 84 -120 191 -156 298 -30 90 -53 195 -43 195 3 0 27 -14 54 -31z
m2978 -73 c151 -36 274 -82 305 -116 14 -16 9 -19 -72 -43 -83 -25 -294 -77
-393 -97 -25 -5 -97 -20 -160 -34 -63 -13 -116 -23 -117 -22 -1 1 4 44 12 96
8 52 22 140 30 195 8 55 17 105 19 111 3 8 40 1 113 -21 60 -19 178 -50 263
-69z m-2737 -864 c27 -30 30 -72 12 -218 -63 -532 -131 -817 -434 -1811 -166
-545 -206 -684 -256 -896 -24 -102 -42 -160 -52 -164 -24 -9 -63 14 -63 38 0
77 126 538 315 1148 80 260 161 528 180 595 114 405 191 798 229 1164 8 78 18
147 21 152 10 15 30 12 48 -8z m712 -202 c4 -6 -25 -90 -64 -188 -175 -444
-258 -846 -306 -1477 -26 -344 -72 -659 -151 -1025 -53 -251 -54 -251 -108
-231 -24 10 -27 16 -23 39 2 15 25 127 50 248 89 431 114 605 152 1094 38 472
123 899 244 1223 82 218 127 311 153 319 35 9 46 9 53 -2z m-1346 -1443 c16
-18 24 -44 31 -108 8 -72 13 -87 36 -107 16 -14 33 -20 44 -17 17 5 17 3 3
-47 -19 -67 -29 -78 -64 -78 -38 0 -55 29 -62 103 -7 68 -20 89 -56 85 -26 -3
-31 -10 -73 -102 -13 -28 -30 -54 -39 -59 -25 -16 -62 0 -89 38 -34 46 -56 53
-87 23 -24 -22 -25 -26 -18 -108 6 -78 4 -88 -15 -113 -19 -24 -28 -27 -85
-27 -70 0 -83 -9 -91 -62 -5 -29 0 -41 35 -83 33 -39 41 -58 41 -89 0 -32 -6
-44 -36 -70 -76 -64 -84 -75 -84 -107 0 -47 25 -69 77 -69 52 0 83 -26 83 -70
0 -16 -9 -52 -20 -80 -24 -61 -26 -103 -4 -124 23 -23 37 -20 84 19 72 60 114
43 125 -52 8 -74 20 -103 42 -103 10 0 33 -18 51 -40 l33 -40 -20 -44 c-29
-68 -74 -84 -115 -43 -18 18 -25 39 -30 96 -9 94 -19 119 -52 132 -28 10 -27
11 -133 -66 -42 -31 -56 -31 -86 0 -34 33 -32 76 6 172 27 69 29 82 20 114
-15 49 -26 56 -100 61 -76 5 -101 27 -101 90 0 53 10 69 80 123 95 73 101 133
20 221 -47 51 -57 83 -41 135 17 56 46 72 119 63 71 -8 98 4 118 53 12 29 13
48 3 113 -13 92 -3 139 37 165 37 24 63 13 117 -50 27 -30 56 -55 66 -55 36 0
69 39 96 115 40 108 87 141 134 92z m297 -323 c-14 -35 -26 -81 -26 -102 1
-59 20 -75 97 -83 56 -6 71 -11 90 -33 43 -50 24 -119 -48 -172 -108 -79 -117
-128 -39 -225 43 -54 50 -68 50 -106 0 -36 -6 -50 -30 -74 -29 -29 -32 -30
-98 -24 -68 7 -68 7 -96 -26 l-28 -33 7 -112 7 -113 -30 -31 c-49 -49 -68 -43
-140 46 -39 48 -41 53 -31 88 l11 38 22 -21 c28 -26 48 -27 71 0 19 20 21 40
15 146 -2 36 3 60 14 78 15 22 23 25 78 25 76 0 98 16 98 72 0 30 -8 47 -37
79 -30 33 -38 49 -38 81 0 36 6 45 57 91 62 56 76 88 55 127 -10 20 -23 26
-65 31 -30 4 -56 10 -59 13 -6 6 92 349 106 371 3 6 7 -7 9 -28 2 -25 -6 -63
-22 -103z m-339 16 c7 -14 13 -40 13 -58 0 -66 31 -89 78 -56 22 15 23 15 17
-13 -6 -26 -68 -93 -86 -93 -18 0 -39 34 -39 64 0 18 -6 41 -14 51 -14 19 -15
19 -34 2 -11 -10 -23 -30 -27 -45 -15 -59 -44 -67 -87 -25 -23 22 -32 25 -46
16 -13 -8 -16 -23 -14 -66 4 -67 -18 -98 -62 -90 -57 11 -75 -47 -31 -99 31
-37 26 -60 -21 -105 -51 -48 -44 -89 15 -95 51 -5 59 -26 36 -93 -17 -52 -17
-57 -2 -72 15 -15 19 -15 53 10 48 34 70 24 79 -38 4 -24 13 -49 19 -55 17
-14 43 8 52 43 6 28 6 28 -15 15 -20 -11 -24 -11 -37 6 -8 11 -14 33 -14 48 0
38 -24 46 -60 20 -24 -18 -30 -19 -46 -7 -17 12 -17 17 -6 47 6 19 12 46 12
60 0 22 -6 27 -37 35 -31 7 -39 14 -41 35 -2 20 4 32 27 49 37 27 40 58 9 99
-18 26 -20 33 -9 56 10 22 16 25 41 21 44 -9 60 13 53 72 -5 43 -3 50 15 60
18 9 25 7 47 -16 30 -34 53 -25 70 28 9 26 17 34 36 34 18 0 25 -6 27 -25 6
-55 13 -70 32 -70 10 0 22 4 25 10 3 5 15 15 27 21 19 10 20 9 13 -23 -11 -55
-57 -203 -64 -208 -4 -3 -12 -21 -19 -40 l-11 -35 6 39 c5 32 3 38 -9 33 -9
-3 -19 -2 -24 3 -5 5 -22 10 -37 12 -28 3 -29 1 -33 -44 -2 -27 1 -48 6 -48 6
0 10 10 10 23 0 12 5 29 11 37 8 11 9 5 4 -22 -6 -36 7 -53 18 -25 3 7 6 4 6
-7 1 -11 6 -16 15 -13 7 3 18 1 23 -4 12 -12 -13 -110 -46 -182 -12 -27 -20
-56 -17 -65 9 -30 -37 -196 -55 -200 -27 -5 -46 23 -52 78 -11 88 -35 99 -99
48 -30 -24 -44 -29 -56 -22 -35 23 -38 41 -14 107 32 89 22 114 -48 123 -42 5
-53 11 -61 30 -12 34 3 67 50 105 53 42 56 84 11 136 -35 39 -39 84 -11 112
15 15 28 18 64 14 40 -5 47 -3 62 21 14 20 16 38 10 86 -12 104 37 144 92 75
47 -59 84 -43 113 47 19 61 63 75 87 28z m281 -322 c7 -7 12 -25 12 -41 0 -27
-10 -40 -80 -99 -31 -27 -26 -70 16 -119 27 -33 34 -48 29 -68 -10 -42 -39
-60 -85 -54 -25 4 -46 1 -55 -7 -12 -10 -15 -10 -14 1 1 28 15 50 39 62 29 14
37 50 20 82 -13 24 0 91 24 130 7 11 16 40 20 64 4 24 9 48 12 53 8 12 48 10
62 -4z"/>
<path d="M9960 8530 c-104 -22 -174 -49 -248 -96 -72 -46 -177 -154 -222 -229
l-34 -58 101 -97 c56 -53 119 -105 140 -115 22 -11 79 -22 138 -27 350 -31
524 -58 735 -118 58 -17 115 -30 127 -30 50 0 207 89 310 176 l51 44 -12 53
c-34 141 -118 253 -258 344 -110 71 -272 133 -417 158 -115 20 -305 18 -411
-5z m157 -162 c-72 -72 -101 -133 -105 -228 -3 -57 1 -87 16 -128 l20 -52 -66
6 c-240 21 -250 24 -343 112 -71 67 -71 72 -8 153 92 116 264 184 477 188 l63
1 -54 -52z m255 -24 c38 -37 39 -90 2 -133 -22 -27 -32 -31 -74 -31 -42 0 -52
4 -74 31 -39 45 -35 92 9 136 31 31 40 35 72 30 20 -4 49 -19 65 -33z m337
-61 c65 -38 120 -91 162 -156 56 -86 59 -111 18 -154 -50 -53 -177 -133 -210
-133 -15 0 -51 5 -78 11 l-51 11 34 41 c101 125 113 280 32 400 l-25 37 37
-16 c20 -8 57 -27 81 -41z"/>
<path d="M12970 7918 c-131 -17 -304 -124 -475 -293 -127 -126 -144 -157 -151
-281 -7 -120 -23 -170 -77 -232 -77 -89 -95 -163 -54 -223 27 -41 77 -61 132
-52 79 11 293 96 310 122 3 6 -26 -1 -64 -14 -38 -12 -111 -33 -163 -45 -119
-27 -155 -21 -181 33 -27 54 -11 92 65 158 74 64 96 111 108 224 6 62 16 99
37 137 33 62 152 185 219 227 l48 31 28 -27 c16 -15 41 -52 56 -83 25 -51 27
-64 27 -180 0 -112 -2 -130 -24 -170 -13 -25 -31 -54 -40 -64 -15 -18 -15 -18
5 -8 32 17 84 81 108 131 17 38 21 65 20 151 -1 115 -21 194 -70 272 -28 45
-29 43 36 77 54 28 134 52 218 65 l77 12 -30 16 c-42 21 -89 26 -165 16z"/>
<path d="M9386 7050 c-3 -19 -7 -64 -10 -99 -6 -81 -54 -184 -99 -212 -42 -26
-98 -22 -252 20 -102 28 -131 32 -198 28 -74 -5 -127 -24 -127 -47 0 -6 37
-10 88 -10 74 0 111 -7 245 -46 129 -37 167 -45 203 -39 64 9 122 58 162 135
33 62 34 69 30 155 -3 56 -10 101 -20 120 l-16 30 -6 -35z"/>
<path d="M7718 6510 c-51 -15 -88 -49 -88 -80 0 -37 20 -56 68 -63 37 -6 39
-9 51 -59 18 -84 72 -207 123 -284 200 -301 586 -463 1048 -441 363 18 621
123 870 353 54 50 62 55 93 49 41 -8 67 13 67 54 0 21 -12 40 -45 70 -24 22
-51 41 -58 41 -7 0 -28 -11 -47 -25 -31 -23 -42 -25 -144 -25 -662 1 -1267
107 -1740 306 -73 31 -90 42 -98 66 -16 44 -44 55 -100 38z m372 -286 c254
-89 594 -162 920 -199 116 -13 488 -34 630 -35 l45 -1 -40 -34 c-41 -36 -170
-118 -240 -153 -76 -38 -234 -82 -350 -97 -428 -56 -803 50 -1021 289 -54 58
-146 218 -169 294 l-6 22 53 -21 c29 -12 109 -41 178 -65z"/>
<path d="M8130 5512 c0 -46 188 -156 320 -187 94 -22 263 -30 332 -16 56 12
93 34 83 50 -2 5 -40 11 -85 14 -136 11 -513 95 -632 142 -10 4 -18 3 -18 -3z"/>
<path d="M4444 12311 c-52 -13 -101 -49 -133 -98 -33 -49 -70 -140 -77 -188
-5 -27 382 -2070 408 -2159 7 -21 31 -60 55 -86 55 -61 132 -90 240 -90 120 0
198 45 241 138 51 113 55 88 -163 1227 -120 633 -204 1048 -217 1076 -47 107
-245 208 -354 180z"/>
<path d="M4013 11934 c-17 -38 -36 -86 -43 -107 -20 -64 -14 -228 15 -397 82
-481 294 -1659 330 -1832 28 -135 72 -223 146 -295 92 -89 224 -137 379 -136
280 1 447 166 475 467 l6 70 -23 -29 c-43 -54 -93 -95 -158 -128 -63 -31 -68
-32 -195 -32 -142 1 -180 10 -288 68 -68 36 -117 88 -158 170 -33 65 -29 46
-294 1422 -86 446 -157 814 -158 819 -2 5 -17 -22 -34 -60z"/>
<path d="M2520 11161 c-78 -24 -143 -75 -203 -157 -68 -95 -116 -238 -102
-304 l7 -31 28 36 c70 88 160 130 260 123 112 -8 192 -94 309 -333 153 -311
227 -581 251 -915 20 -278 61 -411 162 -522 108 -119 318 -168 511 -119 98 26
142 49 211 112 92 84 129 163 146 307 5 47 8 88 5 90 -2 2 -30 -21 -63 -51
-67 -65 -139 -101 -244 -123 -222 -47 -429 44 -517 229 -41 86 -58 169 -71
348 -23 313 -85 558 -220 866 -99 225 -193 364 -289 425 -36 22 -56 28 -100
27 -31 0 -67 -4 -81 -8z"/>
<path d="M4353 3670 c-156 -41 -265 -98 -366 -193 -60 -57 -61 -57 -16 -28 73
47 248 138 371 192 122 53 124 59 11 29z"/>
<path d="M7446 3220 c-16 -96 -22 -99 -60 -37 l-27 42 7 -62 c7 -71 1 -76 -48
-42 -40 29 -44 19 -13 -31 15 -23 23 -46 18 -51 -4 -4 -28 -9 -53 -11 l-45 -3
38 -23 c20 -13 37 -30 37 -38 0 -7 -19 -24 -42 -36 l-43 -22 48 -9 c26 -5 47
-14 47 -19 0 -6 -14 -26 -31 -45 -16 -19 -28 -37 -26 -39 3 -3 21 3 41 12 19
10 39 14 43 11 4 -4 -1 -30 -11 -58 -10 -27 -16 -52 -14 -54 2 -3 18 13 34 35
16 22 32 40 37 40 4 0 7 -28 7 -62 0 -69 8 -69 31 0 9 26 20 46 25 45 5 0 15
-22 23 -47 8 -25 18 -46 23 -46 4 0 8 27 8 60 0 33 4 60 8 60 5 0 21 -13 37
-30 16 -16 30 -28 33 -26 2 3 -4 25 -13 51 -10 25 -15 48 -11 52 4 4 24 2 46
-4 48 -12 53 1 15 37 -36 34 -31 48 20 61 48 12 51 23 8 34 -57 14 -59 26 -12
68 l44 38 -47 -6 c-55 -7 -57 -2 -28 55 27 53 25 57 -14 26 -43 -32 -60 -33
-53 -3 3 12 8 40 12 62 l6 40 -28 -47 c-15 -27 -33 -48 -39 -48 -6 0 -15 26
-20 58 l-10 57 -8 -45z"/>
<path d="M9278 3163 c-8 -10 -18 -32 -21 -50 -5 -27 -1 -37 23 -62 25 -25 30
-37 30 -81 0 -41 -5 -56 -25 -75 -37 -38 -75 -32 -94 15 -9 23 -10 23 -10 4
-1 -31 36 -74 64 -74 14 0 34 13 49 31 23 27 26 40 26 107 1 52 5 83 15 96 43
57 -12 141 -57 89z"/>
<path d="M8167 2623 c7 -75 -7 -83 -37 -22 -12 23 -24 39 -26 36 -3 -3 4 -24
16 -46 27 -54 17 -69 -25 -37 -35 27 -45 31 -45 19 0 -5 16 -19 35 -32 53 -36
47 -55 -15 -47 -32 4 -50 3 -50 -4 0 -5 12 -10 26 -10 32 0 67 -18 59 -30 -3
-5 -24 -14 -45 -20 -22 -6 -40 -15 -40 -20 0 -5 19 -2 42 6 62 21 74 2 26 -40
-45 -39 -51 -59 -7 -22 51 43 65 28 29 -32 -11 -18 -20 -38 -20 -45 0 -6 13
10 28 38 15 27 32 48 37 45 6 -3 9 -7 9 -10 -1 -3 -4 -27 -7 -55 l-6 -50 13
49 c13 56 35 73 37 29 1 -15 5 -39 9 -53 6 -16 7 -2 3 38 -7 74 7 82 37 21 12
-23 24 -39 26 -36 3 3 -4 23 -15 45 -25 49 -13 62 30 32 43 -31 48 -18 5 15
-52 40 -48 58 12 49 32 -4 44 -3 37 4 -5 6 -21 12 -34 14 -14 1 -26 9 -29 15
-3 11 7 17 67 39 32 11 -1 15 -34 4 -53 -18 -62 -1 -20 40 19 19 35 38 35 44
0 5 -15 -5 -34 -23 -42 -41 -54 -27 -26 30 12 22 20 43 18 44 -2 2 -14 -16
-27 -41 -13 -24 -28 -44 -33 -44 -6 0 -8 26 -5 63 l6 62 -11 -52 c-12 -60 -38
-73 -39 -20 0 17 -4 41 -9 52 -4 12 -6 -6 -3 -42z"/>
<path d="M8963 2403 c-7 -3 -13 -15 -13 -28 0 -14 -14 -40 -31 -60 -28 -31
-30 -39 -24 -78 12 -75 8 -131 -14 -177 -11 -25 -21 -39 -21 -32 0 7 5 23 11
35 11 21 10 21 -7 5 -16 -16 -16 -22 -4 -75 14 -59 26 -83 42 -83 16 0 19 26
7 56 -7 16 -11 33 -10 37 1 5 -3 6 -9 2 -17 -11 -11 7 27 82 34 67 36 75 25
106 -18 51 -15 73 18 110 40 46 42 114 3 100z"/>
<path d="M9471 2313 c13 -35 5 -64 -27 -102 -14 -17 -21 -31 -15 -31 6 0 11
-5 11 -11 0 -5 -4 -8 -8 -5 -9 5 -8 -15 4 -85 5 -31 1 -41 -25 -71 -37 -42
-38 -48 -10 -48 21 0 68 48 82 83 4 12 1 31 -8 50 -22 44 -19 70 15 112 36 45
39 86 8 115 -30 28 -39 25 -27 -7z"/>
<path d="M10952 2036 c-69 -93 -72 -101 -67 -140 44 -327 265 -1793 281 -1869
6 -27 6 -27 91 -27 l85 0 -6 27 c-7 34 -159 1030 -221 1443 -24 162 -53 372
-65 465 -11 94 -22 177 -23 185 -1 8 -35 -30 -75 -84z"/>
<path d="M9380 1935 c0 -8 8 -15 18 -16 9 0 12 -3 6 -5 -8 -3 -10 -19 -7 -44
5 -32 0 -44 -27 -79 -27 -34 -31 -45 -26 -73 20 -94 19 -102 -13 -142 -38 -47
-41 -79 -9 -74 13 2 24 11 27 23 2 11 16 35 32 53 33 37 36 60 13 104 -19 36
-13 68 21 104 34 37 40 66 21 102 -9 17 -16 38 -16 47 0 8 -9 15 -20 15 -11 0
-20 -7 -20 -15z"/>
<path d="M9495 1936 c-19 -14 -19 -15 -2 -51 21 -44 16 -84 -15 -111 -33 -30
-40 -60 -23 -101 21 -49 19 -67 -11 -103 -38 -44 -25 -46 25 -3 38 32 42 40
36 67 -18 91 -18 92 15 130 28 31 31 41 26 74 -4 20 -9 54 -12 75 -7 41 -11
44 -39 23z"/>
<path d="M9306 1874 c-9 -8 -16 -21 -16 -28 0 -7 -10 -21 -21 -32 -34 -30 -41
-60 -24 -101 22 -51 19 -71 -16 -110 -34 -40 -38 -95 -6 -101 13 -3 17 3 17
27 0 21 10 42 31 63 32 34 32 33 14 138 -6 29 -2 42 24 74 44 55 41 114 -3 70z"/>
<path d="M8736 1219 c-88 -24 -163 -187 -122 -267 46 -89 138 -95 181 -12 31
60 7 140 -40 140 -22 0 -65 -45 -65 -68 0 -29 26 -48 45 -32 17 14 21 60 5 60
-5 0 -10 5 -10 10 0 17 29 11 50 -10 28 -28 26 -75 -5 -105 -46 -47 -114 -19
-136 55 -10 33 -9 47 5 84 35 93 119 125 176 68 73 -73 56 -221 -34 -299 -41
-37 -37 -43 11 -14 20 13 42 43 64 87 66 133 34 274 -67 303 -16 4 -42 4 -58
0z"/>
<path d="M6719 113 c-50 -111 -51 -113 -31 -113 12 0 27 22 49 73 l31 72 58 3
c131 7 519 -41 881 -109 154 -29 232 -39 285 -37 70 3 61 5 -207 55 -451 85
-745 123 -941 123 l-95 0 -30 -67z"/>
</g>
</svg>
